<?xml version="1.0" encoding="UTF-8" standalone="no"?>
<svg
   version="1.1"
   x="0px"
   y="0px"
   viewBox="0 0 83 83"
   enable-background="new 0 0 100 100"
   xml:space="preserve"
   id="svg8"
   sodipodi:docname="tick.svg"
   inkscape:version="1.2.2 (732a01da63, 2022-12-09)"
   width="83"
   height="83"
   xmlns:inkscape="http://www.inkscape.org/namespaces/inkscape"
   xmlns:sodipodi="http://sodipodi.sourceforge.net/DTD/sodipodi-0.dtd"
   xmlns="http://www.w3.org/2000/svg"
   xmlns:svg="http://www.w3.org/2000/svg"><defs
     id="defs12" /><sodipodi:namedview
     id="namedview10"
     pagecolor="#ffffff"
     bordercolor="#000000"
     borderopacity="0.25"
     inkscape:showpageshadow="2"
     inkscape:pageopacity="0.0"
     inkscape:pagecheckerboard="0"
     inkscape:deskcolor="#d1d1d1"
     showgrid="false"
     inkscape:zoom="6.512"
     inkscape:cx="39.312039"
     inkscape:cy="38.928133"
     inkscape:window-width="1920"
     inkscape:window-height="1001"
     inkscape:window-x="-9"
     inkscape:window-y="-9"
     inkscape:window-maximized="1"
     inkscape:current-layer="svg8" /><path
     d="m 65.542,26.77 c -1.388,-1.344 -3.604,-1.31 -4.949,0.08 L 33.5,54.833 19.438,41.922 c -1.424,-1.308 -3.638,-1.213 -4.945,0.211 -1.307,1.424 -1.213,3.638 0.211,4.945 l 16.572,15.216 c 0.671,0.616 1.52,0.922 2.366,0.922 0.916,0 1.83,-0.357 2.516,-1.065 L 65.622,31.719 c 1.345,-1.389 1.309,-3.605 -0.08,-4.949 z M 41.5,0 C 18.617,0 0,18.617 0,41.5 0,64.383 18.617,83 41.5,83 64.383,83 83,64.383 83,41.5 83,18.617 64.383,0 41.5,0 Z m 0,76 C 22.477,76 7,60.523 7,41.5 7,22.477 22.477,7 41.5,7 60.523,7 76,22.477 76,41.5 76,60.523 60.523,76 41.5,76 Z"
     id="path2"
     style="fill:#00d700;fill-opacity:1" /></svg>
