<?xml version="1.0" encoding="UTF-8" standalone="no"?>
<!-- Uploaded to: SVG Repo, www.svgrepo.com, Generator: SVG Repo Mixer Tools -->

<svg
   fill="#000000"
   width="800px"
   height="800px"
   viewBox="0 0 32 32"
   version="1.1"
   id="svg526"
   sodipodi:docname="z.svg"
   inkscape:version="1.2.2 (732a01da63, 2022-12-09)"
   xmlns:inkscape="http://www.inkscape.org/namespaces/inkscape"
   xmlns:sodipodi="http://sodipodi.sourceforge.net/DTD/sodipodi-0.dtd"
   xmlns="http://www.w3.org/2000/svg"
   xmlns:svg="http://www.w3.org/2000/svg">
  <defs
     id="defs530" />
  <sodipodi:namedview
     id="namedview528"
     pagecolor="#ffffff"
     bordercolor="#000000"
     borderopacity="0.25"
     inkscape:showpageshadow="2"
     inkscape:pageopacity="0.0"
     inkscape:pagecheckerboard="0"
     inkscape:deskcolor="#d1d1d1"
     showgrid="false"
     inkscape:zoom="1.0175"
     inkscape:cx="394.10319"
     inkscape:cy="400.4914"
     inkscape:window-width="1920"
     inkscape:window-height="1001"
     inkscape:window-x="-9"
     inkscape:window-y="-9"
     inkscape:window-maximized="1"
     inkscape:current-layer="svg526" />
  <title
     id="title522">z</title>
  <path
     d="M 24.764,5.562 V 4.793 c 0,-0.166 -0.134,-0.3 -0.3,-0.3 H 24.463 7.824 7.823 c -0.165,0 -0.299,0.134 -0.299,0.299 v 0.001 0 0.929 10e-4 c 0,0.165 0.134,0.299 0.299,0.299 l 10e-4,2.5552825 9.759371,0 L 7.074,26.245 c -0.038,0.049 -0.062,0.112 -0.062,0.18 v 0.002 0 0.768 0.001 c 0,0.166 0.134,0.3 0.3,0.3 h 17.119 c 0.166,0 0.301,-0.135 0.301,-0.301 v 0 -0.928 c 0,-0.166 0.194044,-3.031943 -0.06513,-3.013531 L 14.78231,23.214157 24.701,5.745 c 0.038,-0.05 0.062,-0.114 0.063,-0.182 l 1.257985,0.8255528 z"
     id="path524"
     sodipodi:nodetypes="cssccsscccsscccscccsssscssccscc" />
</svg>
